<svg id="Grupo_25" data-name="Grupo 25" xmlns="http://www.w3.org/2000/svg" width="375" height="41" viewBox="0 0 375 41">
  <rect id="Retângulo_230" data-name="Retângulo 230" width="375" height="41" fill="#fff"/>
  <g id="Grupo_24" data-name="Grupo 24">
    <line id="Linha_97" data-name="Linha 97" y2="10" transform="translate(309.5 17.5)" fill="none" stroke="#111" stroke-linecap="round" stroke-width="3"/>
    <line id="Linha_98" data-name="Linha 98" y2="7" transform="translate(304.5 20.5)" fill="none" stroke="#111" stroke-linecap="round" stroke-width="3"/>
    <line id="Linha_99" data-name="Linha 99" y2="4" transform="translate(299.5 23.5)" fill="none" stroke="#111" stroke-linecap="round" stroke-width="3"/>
    <line id="Linha_100" data-name="Linha 100" y2="2" transform="translate(294.5 25.5)" fill="none" stroke="#111" stroke-linecap="round" stroke-width="3"/>
  </g>
  <text id="_9:41" data-name="9:41" transform="translate(35 29)" fill="#0d0d0d" font-size="15" font-family="SegoeUI, Segoe UI"><tspan x="0" y="0">9:41</tspan></text>
  <g id="Grupo_23" data-name="Grupo 23">
    <path id="Caminho_72" data-name="Caminho 72" d="M2551.714,2179.12s3.328-3.056,6.7-3.056,6.363,2.7,6.363,2.7" transform="translate(-2235 -2158)" fill="none" stroke="#111" stroke-linecap="round" stroke-width="2"/>
    <path id="Caminho_73" data-name="Caminho 73" d="M2551.714,2177.778a6.717,6.717,0,0,1,3.76-1.714,6.174,6.174,0,0,1,3.569,1.515" transform="translate(-2232 -2154)" fill="none" stroke="#111" stroke-linecap="round" stroke-width="2"/>
    <path id="Caminho_74" data-name="Caminho 74" d="M2551.714,2176.686a2.44,2.44,0,0,1,1.366-.623,2.243,2.243,0,0,1,1.3.55" transform="translate(-2229.667 -2150)" fill="none" stroke="#111" stroke-linecap="round" stroke-width="2"/>
  </g>
  <g id="Grupo_22" data-name="Grupo 22">
    <g id="Retângulo_223" data-name="Retângulo 223" transform="translate(336 17)" fill="none" stroke="#111" stroke-width="1">
      <rect width="22" height="11" rx="4" stroke="none"/>
      <rect x="0.5" y="0.5" width="21" height="10" rx="3.5" fill="none"/>
    </g>
    <rect id="Retângulo_224" data-name="Retângulo 224" width="15" height="7" rx="2" transform="translate(338 19)" fill="#111"/>
    <path id="Caminho_83" data-name="Caminho 83" d="M2551.889,2176.613h2.34" transform="translate(2535.754 -2530.559) rotate(90)" fill="none" stroke="#111" stroke-linecap="round" stroke-width="1.2"/>
  </g>
</svg>
