<svg xmlns="http://www.w3.org/2000/svg" width="33.732" height="32.763" viewBox="0 0 33.732 32.763">
  <path id="LOGO" d="M22.864.1a3.852,3.852,0,0,0-.776.317,2.15,2.15,0,0,0-.5.408,1.831,1.831,0,0,0-.257.541,7.326,7.326,0,0,0-.039,1.636l.052,1.305-.363.155-.363.156v.524c0,.288.032.524.07.524a1.836,1.836,0,0,0,.363-.122c.23-.1.3-.1.325-.02.018.056.055.409.084.784s.1,1.036.167,1.47.192,1.137.284,1.564a13.554,13.554,0,0,0,.407,1.436,6.773,6.773,0,0,0,.544,1.133,3.334,3.334,0,0,0,.6.7,1.229,1.229,0,0,0,.762.26,2.4,2.4,0,0,0,.741-.058,2.26,2.26,0,0,0,.657-.47,4.343,4.343,0,0,0,.77-1.181,8.257,8.257,0,0,0,.531-1.424,1.838,1.838,0,0,1,.205-.622.068.068,0,0,1,.064.072,2.22,2.22,0,0,0,.362.474,3.757,3.757,0,0,0,.72.613,2.972,2.972,0,0,0,.8.292,2.665,2.665,0,0,0,1.1-.041,5.061,5.061,0,0,0,1.249-.421,4.653,4.653,0,0,0,1.053-.753A3.9,3.9,0,0,0,33.2,8.39a7.122,7.122,0,0,0,.391-1.033,6.2,6.2,0,0,0,.142-1.644,4.631,4.631,0,0,0-.094-1.282c-.091-.154-.1-.152-.139.04-.025.11-.1.56-.169,1s-.2,1.066-.283,1.389a5.976,5.976,0,0,1-.322.906,3.027,3.027,0,0,1-.5.643,3.294,3.294,0,0,1-.635.478A1.557,1.557,0,0,1,31,9.041a1.751,1.751,0,0,1-.564-.116,1.263,1.263,0,0,1-.516-.493,4.682,4.682,0,0,1-.4-.867,6.472,6.472,0,0,1-.21-.811l-.049-.321.428,0a1.8,1.8,0,0,0,.941-.278,2.657,2.657,0,0,0,.816-.656,3.014,3.014,0,0,0,.409-.684,4.225,4.225,0,0,0,.107-1.024,2.169,2.169,0,0,0-.207-1.163,3.828,3.828,0,0,0-.414-.685,2.75,2.75,0,0,0-.634-.481,1.723,1.723,0,0,0-1.11-.237,2.146,2.146,0,0,0-1.213.252,4.272,4.272,0,0,0-.857.546,4.121,4.121,0,0,0-.579.69,5.369,5.369,0,0,0-.442.938,6.882,6.882,0,0,0-.263,1.291,7.383,7.383,0,0,0,0,1.4,9.756,9.756,0,0,0,.23,1.233l.158.578-.239.946a9.367,9.367,0,0,1-.481,1.439,1.98,1.98,0,0,1-.456.633c-.151.1-.251.117-.34.062a1.159,1.159,0,0,1-.259-.472,10.51,10.51,0,0,1-.266-1.4c-.075-.566-.153-1.893-.18-3.048l-.047-2.046.473-.169.473-.169.023-.572.024-.572-.446.171a1.11,1.11,0,0,1-.5.117,9.816,9.816,0,0,1,.034-1.435c.048-.76.1-1.436.115-1.5.023-.1-.09-.123-.614-.137A4.4,4.4,0,0,0,22.864.1ZM13.6,2.873a11.027,11.027,0,0,0-1.079.235,6.921,6.921,0,0,0-1.15.452,5.523,5.523,0,0,0-.889.589,3.077,3.077,0,0,0-.559.7,4.608,4.608,0,0,0-.337.864c-.067.258-.184.887-.26,1.4a19.644,19.644,0,0,0-.138,2.934,14.932,14.932,0,0,0,.185,3.081c.1.592.287,1.44.412,1.885a15.22,15.22,0,0,0,.513,1.485,3.429,3.429,0,0,1,.252.71,3.042,3.042,0,0,1-.561-.5,4,4,0,0,1-.839-1.191c-.172-.361-.424-.974-.561-1.363s-.325-1-.417-1.364-.237-1.046-.32-1.523-.191-1.368-.239-1.98a9.777,9.777,0,0,1,0-1.94c.049-.455.111-.931.138-1.059l.05-.232L7,6.089a2.772,2.772,0,0,0-1.4.321,4.838,4.838,0,0,0-.9.554,3.872,3.872,0,0,0-.576.687,5.556,5.556,0,0,0-.466,1.012,12.8,12.8,0,0,0-.363,1.59c-.089.546-.2,1.607-.251,2.357-.052.809-.067,2.13-.036,3.248.03,1.086.017,2.361-.03,3.008a12.7,12.7,0,0,1-.206,1.6,6.248,6.248,0,0,1-.364.976,3.151,3.151,0,0,1-.7.916,4.451,4.451,0,0,1-.959.648,2.951,2.951,0,0,1-.622.227c-.067,0-.122.034-.122.075a1.583,1.583,0,0,0,.517.33,2.717,2.717,0,0,0,1.023.293A5.124,5.124,0,0,0,2.888,23.8a7.505,7.505,0,0,0,1.4-.436A4.88,4.88,0,0,0,5.3,22.691a2.588,2.588,0,0,0,.625-.818A5.106,5.106,0,0,0,6.2,20.833a8.352,8.352,0,0,0,0-1.9c-.051-.7-.237-2.243-.413-3.434s-.364-2.713-.417-3.383a7.916,7.916,0,0,1-.006-1.866A5.075,5.075,0,0,1,5.622,9.2a1.946,1.946,0,0,1,.263-.474c.068-.056.084.091.063.567a10.247,10.247,0,0,0,.067,1.417c.053.426.234,1.315.4,1.977s.421,1.492.561,1.845.414.961.608,1.351a10.808,10.808,0,0,0,.706,1.205A8.45,8.45,0,0,0,9.2,18.106a5.943,5.943,0,0,0,.969.744,4.526,4.526,0,0,0,1,.348,3.941,3.941,0,0,0,1.219.07,9.035,9.035,0,0,0,1.219-.2,5.288,5.288,0,0,0,.829-.276c.135-.07.245-.153.245-.185a.931.931,0,0,0-.317-.239,2.173,2.173,0,0,1-.577-.559,5.874,5.874,0,0,1-.48-.919,11.289,11.289,0,0,1-.42-1.446c-.11-.5-.245-1.267-.3-1.708s-.1-1.578-.1-2.526.047-2.085.1-2.526.184-1.277.291-1.858a16.351,16.351,0,0,1,.443-1.8,12.842,12.842,0,0,1,.63-1.491c.288-.562.35-.74.253-.732C14.136,2.8,13.865,2.835,13.6,2.873Zm16.919.2a1.6,1.6,0,0,1,.286.491,1.808,1.808,0,0,1,.053.64,1.27,1.27,0,0,1-.278.652,2.754,2.754,0,0,1-.591.511,2.637,2.637,0,0,1-.583.272l-.23.055.059-.673a6.914,6.914,0,0,1,.212-1.17,1.937,1.937,0,0,1,.4-.742.85.85,0,0,1,.363-.245A.636.636,0,0,1,30.523,3.073Zm-13.7,2.838a4.328,4.328,0,0,0-.892.431,3.881,3.881,0,0,0-.714.635,4.785,4.785,0,0,0-.527.875,6.733,6.733,0,0,0-.372,1.191,5.892,5.892,0,0,0-.093,1.6,6.379,6.379,0,0,0,.256,1.646,8.5,8.5,0,0,0,.5,1.269,5.5,5.5,0,0,0,.629.928,3.576,3.576,0,0,0,.769.616,1.608,1.608,0,0,0,1.031.234,2.1,2.1,0,0,0,1.143-.265,5.07,5.07,0,0,0,1.027-.711,3.244,3.244,0,0,0,.834-1.179,7.575,7.575,0,0,0,.44-1.118,8.2,8.2,0,0,0,.139-1,7.771,7.771,0,0,0-.049-1.335,9.06,9.06,0,0,0-.308-1.363,5.7,5.7,0,0,0-.576-1.177,4.91,4.91,0,0,0-.765-.865,2.8,2.8,0,0,0-.8-.447,3.256,3.256,0,0,0-.8-.114A3.62,3.62,0,0,0,16.818,5.911Zm1.948,1.763a1.926,1.926,0,0,1,.437.639,5.974,5.974,0,0,1,.333,1.093,9.482,9.482,0,0,1,.117,1.45,8.815,8.815,0,0,1-.127,1.453,4.664,4.664,0,0,1-.277.909,1.945,1.945,0,0,1-.4.505.884.884,0,0,1-.439.211.527.527,0,0,1-.352-.207,2.947,2.947,0,0,1-.322-.631,8.217,8.217,0,0,1-.284-1.085,10.841,10.841,0,0,1-.125-1.731,10.245,10.245,0,0,1,.09-1.5,3.592,3.592,0,0,1,.24-.72,1.353,1.353,0,0,1,.329-.421.767.767,0,0,1,.37-.126A.872.872,0,0,1,18.766,7.674Zm2.869,8.3a2.1,2.1,0,0,1-1.04.685,15.6,15.6,0,0,1-1.7.492c-.575.132-1.263.311-1.527.4a4.117,4.117,0,0,0-.78.354,1.469,1.469,0,0,0-.432.452,2.453,2.453,0,0,0-.172.744,4.022,4.022,0,0,0,.056.946,1.994,1.994,0,0,0,.126.46,1.327,1.327,0,0,0,.239-.194,2.522,2.522,0,0,1,.546-.349,3.825,3.825,0,0,1,.55-.207l.214-.051.043.581c.024.32.083,1.159.132,1.865s.142,1.7.206,2.206.192,1.3.284,1.759.273,1.214.4,1.676A11.854,11.854,0,0,0,19.3,29.24a6.811,6.811,0,0,0,.6,1.032c.281.373.3.433.179.47a5.636,5.636,0,0,0-.554.243,1.187,1.187,0,0,0-.5.4,2.265,2.265,0,0,0-.09.7,1.805,1.805,0,0,0,.079.618c.045.07.078.081.079.026s.191-.185.422-.3a6.855,6.855,0,0,1,1.223-.369c.441-.092,1.083-.26,1.427-.373a3.4,3.4,0,0,0,.857-.4,1.247,1.247,0,0,0,.324-.474,1.206,1.206,0,0,0,.036-.539,4.376,4.376,0,0,0-.176-.563l-.12-.3-.356.328c-.2.18-.4.314-.452.3A1.017,1.017,0,0,1,22,29.688a7.357,7.357,0,0,1-.417-1.046,14.386,14.386,0,0,1-.4-1.684c-.088-.524-.2-1.386-.26-1.915-.058-.556-.1-2.023-.1-3.473,0-2.06.022-2.529.116-2.614a1.964,1.964,0,0,1,.475-.236,2.767,2.767,0,0,0,.672-.388,1.7,1.7,0,0,0,.421-.522.737.737,0,0,1,.15-.267,10.028,10.028,0,0,1,.039,1.246v1.246l-.361.155-.361.155v.524a1.655,1.655,0,0,0,.043.524,2.311,2.311,0,0,0,.331-.12,1.939,1.939,0,0,1,.347-.12,2.209,2.209,0,0,1,.114.7c.03.386.109,1.081.175,1.544s.226,1.286.357,1.829a10.262,10.262,0,0,0,.508,1.564,6.689,6.689,0,0,0,.521.916,1.981,1.981,0,0,0,.569.5,1.7,1.7,0,0,0,1.441.006,2.771,2.771,0,0,0,.644-.539,5,5,0,0,0,.607-.946,9.147,9.147,0,0,0,.453-1.206,5.321,5.321,0,0,0,.185-1.684,4.088,4.088,0,0,0-.092-1.2c-.076-.129-.1-.137-.133-.04-.021.066-.115.549-.209,1.072a15.964,15.964,0,0,1-.407,1.684,5.3,5.3,0,0,1-.44,1.033.944.944,0,0,1-.415.353.256.256,0,0,1-.316-.09,2.888,2.888,0,0,1-.228-.714c-.068-.314-.161-.9-.206-1.292s-.1-1.606-.131-2.687l-.048-1.965.472-.166.472-.166.024-.542c.023-.533.021-.541-.16-.486-.1.031-.306.106-.455.167a2.162,2.162,0,0,1-.312.111,7.758,7.758,0,0,1,.016-1.13c.032-.622.085-1.3.119-1.517l.061-.386-.337-.051a3.741,3.741,0,0,0-.889.035,4.475,4.475,0,0,0-1.054.33,1.763,1.763,0,0,0-.7.538,1.3,1.3,0,0,0-.206.416c0,.067-.057-.087-.119-.341a6.535,6.535,0,0,0-.284-.862,1.175,1.175,0,0,0-.222-.395A3.084,3.084,0,0,0,21.635,15.979Z" fill="#343434" fill-rule="evenodd"/>
</svg>
