<svg xmlns="http://www.w3.org/2000/svg" width="60.093" height="58.366" viewBox="0 0 60.093 58.366">
  <path id="LOGO" d="M40.732.186a6.863,6.863,0,0,0-1.383.565,3.83,3.83,0,0,0-.9.728A3.262,3.262,0,0,0,38,2.443a13.051,13.051,0,0,0-.069,2.914l.093,2.326-.646.277-.646.277v.934c0,.514.056.934.125.934a3.271,3.271,0,0,0,.646-.218c.41-.171.533-.179.578-.036.032.1.1.728.149,1.4s.184,1.846.3,2.618.342,2.025.506,2.786a24.148,24.148,0,0,0,.725,2.559,12.067,12.067,0,0,0,.97,2.018A5.939,5.939,0,0,0,41.8,22.473a2.19,2.19,0,0,0,1.358.464,4.282,4.282,0,0,0,1.321-.1A4.027,4.027,0,0,0,45.649,22a7.737,7.737,0,0,0,1.372-2.1,14.709,14.709,0,0,0,.945-2.536,3.274,3.274,0,0,1,.365-1.107.122.122,0,0,1,.114.127,3.955,3.955,0,0,0,.645.845,6.692,6.692,0,0,0,1.283,1.091,5.3,5.3,0,0,0,1.432.52,4.748,4.748,0,0,0,1.968-.072A9.017,9.017,0,0,0,56,18.011a8.29,8.29,0,0,0,1.875-1.342,6.947,6.947,0,0,0,1.268-1.723,12.688,12.688,0,0,0,.7-1.841,11.04,11.04,0,0,0,.253-2.929,8.251,8.251,0,0,0-.168-2.284c-.161-.274-.17-.271-.248.071-.045.2-.18,1-.3,1.784s-.348,1.9-.5,2.475a10.645,10.645,0,0,1-.574,1.613,5.393,5.393,0,0,1-.885,1.145,5.868,5.868,0,0,1-1.132.851,2.774,2.774,0,0,1-1.047.273,3.119,3.119,0,0,1-1-.206,2.25,2.25,0,0,1-.919-.878,8.341,8.341,0,0,1-.713-1.544,11.53,11.53,0,0,1-.375-1.444l-.088-.572.763-.008a3.214,3.214,0,0,0,1.677-.5A4.734,4.734,0,0,0,56.029,9.79a5.37,5.37,0,0,0,.728-1.219,7.527,7.527,0,0,0,.191-1.824,3.863,3.863,0,0,0-.369-2.072,6.819,6.819,0,0,0-.738-1.221A4.9,4.9,0,0,0,54.71,2.6a3.07,3.07,0,0,0-1.977-.422,3.824,3.824,0,0,0-2.161.448,7.61,7.61,0,0,0-1.526.972,7.342,7.342,0,0,0-1.032,1.229,9.565,9.565,0,0,0-.788,1.671,12.261,12.261,0,0,0-.469,2.3,13.152,13.152,0,0,0,0,2.5,17.382,17.382,0,0,0,.409,2.2l.281,1.029-.425,1.685a16.688,16.688,0,0,1-.856,2.563,3.528,3.528,0,0,1-.812,1.127c-.269.176-.447.209-.606.111a2.065,2.065,0,0,1-.462-.841,18.723,18.723,0,0,1-.473-2.488c-.133-1.009-.273-3.373-.32-5.43L43.4,7.6l.843-.3.843-.3.042-1.018.042-1.018-.8.3a1.977,1.977,0,0,1-.89.209,17.487,17.487,0,0,1,.061-2.557c.086-1.354.178-2.559.2-2.676.04-.175-.16-.22-1.094-.243A7.835,7.835,0,0,0,40.732.186Zm-16.5,4.933a19.644,19.644,0,0,0-1.923.419,12.33,12.33,0,0,0-2.049.806A9.84,9.84,0,0,0,18.68,7.393a5.482,5.482,0,0,0-1,1.243,8.209,8.209,0,0,0-.6,1.539c-.12.459-.328,1.579-.464,2.49a35,35,0,0,0-.245,5.228,26.6,26.6,0,0,0,.33,5.489c.181,1.054.511,2.565.733,3.358a27.114,27.114,0,0,0,.913,2.646,6.108,6.108,0,0,1,.449,1.264,5.418,5.418,0,0,1-1-.894,7.13,7.13,0,0,1-1.5-2.122c-.306-.643-.755-1.735-1-2.428s-.578-1.786-.743-2.429-.422-1.864-.571-2.714-.341-2.437-.426-3.528a17.418,17.418,0,0,1,0-3.456c.087-.81.2-1.659.246-1.886l.089-.413-1.436.069a4.939,4.939,0,0,0-2.493.571,8.618,8.618,0,0,0-1.61.987A6.9,6.9,0,0,0,7.338,13.63a9.9,9.9,0,0,0-.83,1.8,22.794,22.794,0,0,0-.647,2.833c-.159.973-.36,2.863-.447,4.2-.093,1.441-.119,3.794-.064,5.787.054,1.935.031,4.205-.054,5.358a22.623,22.623,0,0,1-.367,2.858,11.13,11.13,0,0,1-.649,1.739,5.613,5.613,0,0,1-1.247,1.631,7.93,7.93,0,0,1-1.708,1.154,5.257,5.257,0,0,1-1.108.4c-.12,0-.218.06-.218.134a2.821,2.821,0,0,0,.921.587,4.841,4.841,0,0,0,1.822.523,9.129,9.129,0,0,0,2.4-.236,13.371,13.371,0,0,0,2.5-.776,8.694,8.694,0,0,0,1.8-1.206,4.61,4.61,0,0,0,1.114-1.457,9.1,9.1,0,0,0,.475-1.851,14.88,14.88,0,0,0,0-3.389c-.091-1.243-.422-4-.735-6.118s-.648-4.834-.744-6.027a14.1,14.1,0,0,1-.01-3.324,9.041,9.041,0,0,1,.468-1.863,3.467,3.467,0,0,1,.468-.844c.121-.1.15.162.111,1.01a18.255,18.255,0,0,0,.119,2.525c.094.758.417,2.343.717,3.522s.75,2.658,1,3.286.737,1.712,1.082,2.407a19.254,19.254,0,0,0,1.258,2.147,15.054,15.054,0,0,0,1.615,1.808,10.588,10.588,0,0,0,1.727,1.325,8.062,8.062,0,0,0,1.782.62,7.021,7.021,0,0,0,2.171.124,16.1,16.1,0,0,0,2.171-.362,9.42,9.42,0,0,0,1.477-.492c.24-.124.437-.273.436-.33a1.658,1.658,0,0,0-.565-.426,3.871,3.871,0,0,1-1.028-1,10.465,10.465,0,0,1-.855-1.636,20.111,20.111,0,0,1-.749-2.577c-.2-.888-.437-2.257-.534-3.043s-.174-2.811-.171-4.5.084-3.715.179-4.5.328-2.275.518-3.309a29.129,29.129,0,0,1,.789-3.215,22.879,22.879,0,0,1,1.123-2.656c.514-1,.623-1.317.45-1.3C25.183,4.988,24.7,5.051,24.235,5.119Zm30.142.356a2.844,2.844,0,0,1,.51.874,3.221,3.221,0,0,1,.094,1.14,2.262,2.262,0,0,1-.5,1.162,4.907,4.907,0,0,1-1.052.911,4.7,4.7,0,0,1-1.039.484l-.41.1.105-1.2a12.318,12.318,0,0,1,.377-2.084,3.45,3.45,0,0,1,.709-1.322,1.514,1.514,0,0,1,.646-.436A1.134,1.134,0,0,1,54.377,5.475ZM29.961,10.53a7.71,7.71,0,0,0-1.589.767A6.915,6.915,0,0,0,27.1,12.429a8.525,8.525,0,0,0-.938,1.559A11.994,11.994,0,0,0,25.5,16.11a10.5,10.5,0,0,0-.166,2.845,11.364,11.364,0,0,0,.455,2.932,15.138,15.138,0,0,0,.895,2.261A9.806,9.806,0,0,0,27.8,25.8a6.371,6.371,0,0,0,1.37,1.1,2.865,2.865,0,0,0,1.836.416,3.733,3.733,0,0,0,2.036-.472,9.032,9.032,0,0,0,1.83-1.266,5.779,5.779,0,0,0,1.486-2.1,13.5,13.5,0,0,0,.784-1.992,14.6,14.6,0,0,0,.248-1.786,13.843,13.843,0,0,0-.087-2.379,16.14,16.14,0,0,0-.549-2.428,10.163,10.163,0,0,0-1.026-2.1,8.748,8.748,0,0,0-1.363-1.541,4.994,4.994,0,0,0-1.419-.8,5.8,5.8,0,0,0-1.429-.2A6.449,6.449,0,0,0,29.961,10.53Zm3.47,3.141a3.431,3.431,0,0,1,.778,1.139,10.643,10.643,0,0,1,.594,1.948,16.893,16.893,0,0,1,.208,2.582,15.7,15.7,0,0,1-.226,2.588,8.309,8.309,0,0,1-.494,1.619,3.464,3.464,0,0,1-.714.9,1.575,1.575,0,0,1-.782.375.938.938,0,0,1-.626-.369,5.249,5.249,0,0,1-.573-1.124,14.639,14.639,0,0,1-.506-1.933,19.314,19.314,0,0,1-.224-3.084,18.251,18.251,0,0,1,.16-2.663,6.4,6.4,0,0,1,.427-1.284,2.41,2.41,0,0,1,.586-.75,1.366,1.366,0,0,1,.659-.224A1.554,1.554,0,0,1,33.432,13.671Zm5.112,14.795a3.745,3.745,0,0,1-1.852,1.22,27.8,27.8,0,0,1-3.031.877c-1.025.235-2.249.555-2.721.711a7.334,7.334,0,0,0-1.389.631,2.617,2.617,0,0,0-.769.806,4.37,4.37,0,0,0-.307,1.325,7.165,7.165,0,0,0,.1,1.685,3.552,3.552,0,0,0,.224.819,2.365,2.365,0,0,0,.427-.345,4.494,4.494,0,0,1,.972-.622,6.815,6.815,0,0,1,.98-.369l.381-.092.077,1.035c.042.57.148,2.064.236,3.322s.252,3.026.366,3.929.341,2.314.505,3.133.486,2.163.718,2.986a21.118,21.118,0,0,0,.918,2.573,12.134,12.134,0,0,0,1.072,1.838c.5.664.542.771.318.837a10.041,10.041,0,0,0-.987.434,2.115,2.115,0,0,0-.893.714,4.035,4.035,0,0,0-.16,1.243,3.216,3.216,0,0,0,.141,1.1c.081.125.139.145.141.046s.34-.33.752-.527a12.212,12.212,0,0,1,2.179-.658c.786-.165,1.93-.464,2.542-.665a6.054,6.054,0,0,0,1.527-.715,2.221,2.221,0,0,0,.578-.844,2.149,2.149,0,0,0,.064-.96,7.8,7.8,0,0,0-.314-1l-.214-.539-.634.584c-.348.321-.711.559-.8.527a1.812,1.812,0,0,1-.493-.617,13.106,13.106,0,0,1-.744-1.863,25.628,25.628,0,0,1-.707-3c-.156-.934-.365-2.469-.463-3.412-.1-.99-.176-3.6-.174-6.187,0-3.671.04-4.505.206-4.657a3.5,3.5,0,0,1,.847-.421,4.93,4.93,0,0,0,1.2-.691,3.025,3.025,0,0,0,.75-.93,1.312,1.312,0,0,1,.268-.475,17.865,17.865,0,0,1,.07,2.22v2.22l-.643.276-.643.276v.934a2.948,2.948,0,0,0,.076.934,4.117,4.117,0,0,0,.589-.214,3.454,3.454,0,0,1,.619-.214,3.935,3.935,0,0,1,.2,1.25c.054.688.194,1.925.311,2.751s.4,2.291.636,3.258a18.281,18.281,0,0,0,.9,2.786,11.917,11.917,0,0,0,.928,1.632,3.53,3.53,0,0,0,1.014.893,3.035,3.035,0,0,0,2.568.01,4.936,4.936,0,0,0,1.147-.96,8.9,8.9,0,0,0,1.081-1.685,16.3,16.3,0,0,0,.807-2.148,9.48,9.48,0,0,0,.33-3,7.282,7.282,0,0,0-.164-2.143c-.136-.23-.182-.244-.236-.071-.037.118-.2.977-.373,1.91a28.443,28.443,0,0,1-.724,3A9.442,9.442,0,0,1,48.088,47a1.681,1.681,0,0,1-.74.628.456.456,0,0,1-.563-.161,5.145,5.145,0,0,1-.407-1.271c-.121-.559-.286-1.595-.368-2.3s-.186-2.861-.234-4.787l-.086-3.5.841-.3.841-.3.043-.966c.042-.949.037-.964-.286-.866-.181.055-.545.189-.81.3a3.851,3.851,0,0,1-.556.2,13.821,13.821,0,0,1,.028-2.014c.056-1.108.151-2.324.211-2.7l.109-.688-.6-.09a6.664,6.664,0,0,0-1.584.062,7.972,7.972,0,0,0-1.879.587,3.141,3.141,0,0,0-1.25.958,2.324,2.324,0,0,0-.368.74c-.007.119-.1-.154-.212-.608a11.643,11.643,0,0,0-.506-1.536,2.094,2.094,0,0,0-.4-.7A5.5,5.5,0,0,0,38.543,28.466Z" fill="#343434" fill-rule="evenodd"/>
</svg>
